<?xml version="1.0" standalone="no"?>
<!DOCTYPE svg PUBLIC "-//W3C//DTD SVG 20010904//EN"
 "http://www.w3.org/TR/2001/REC-SVG-20010904/DTD/svg10.dtd">
<svg version="1.0" xmlns="http://www.w3.org/2000/svg"
 width="200.000000pt" height="200.000000pt" viewBox="0 0 200.000000 200.000000"
 preserveAspectRatio="xMidYMid meet">
<metadata>
Created by potrace 1.11, written by Peter Selinger 2001-2013
</metadata>
<g transform="translate(0.000000,200.000000) scale(0.100000,-0.100000)"
fill="#000000" stroke="none">
<path d="M910 1530 c-130 -14 -148 -39 -114 -157 5 -17 1 -22 -26 -28 -53 -12
-152 -55 -205 -90 -27 -18 -79 -41 -114 -50 -187 -48 -221 -118 -89 -182 l66
-33 16 -67 c8 -38 18 -91 22 -119 l6 -52 -53 -17 c-79 -26 -145 -61 -163 -87
-62 -88 86 -252 291 -323 56 -20 69 -28 71 -48 2 -13 15 -31 31 -40 69 -40
365 -61 521 -37 109 18 160 38 171 70 8 22 21 30 70 44 146 40 277 134 325
232 24 48 25 57 14 84 -15 36 -69 70 -160 100 -36 12 -66 23 -67 24 -4 3 24
158 36 204 10 34 17 42 55 56 66 25 96 52 96 86 0 44 -67 83 -189 111 -23 5
-57 20 -75 33 -45 34 -123 72 -189 91 l-57 16 6 69 c6 64 5 69 -17 83 -38 25
-175 38 -279 27z m237 -48 c13 -8 10 -11 -17 -17 -48 -11 -240 -8 -270 3 l-25
10 25 6 c14 3 36 7 50 10 39 7 218 -2 237 -12z m-177 -59 c63 -3 135 0 159 5
l43 10 -6 -42 c-10 -61 -1 -74 63 -92 102 -30 183 -75 244 -135 31 -32 57 -62
57 -67 0 -25 -211 -59 -429 -68 -218 -9 -492 14 -613 52 -29 9 -21 30 30 81
54 54 135 100 235 133 76 25 91 42 77 91 -14 47 -13 52 8 44 9 -4 69 -10 132
-12z m-529 -294 c-12 -19 -21 -39 -21 -45 0 -32 199 -72 415 -83 288 -14 596
12 703 59 l44 20 -26 45 c-25 46 -25 46 -3 40 54 -15 117 -49 117 -65 0 -32
-95 -68 -253 -96 -114 -21 -559 -30 -712 -15 -196 19 -356 62 -381 102 -10 17
19 40 77 59 30 10 55 17 57 15 2 -1 -6 -18 -17 -36z m286 -178 c226 -20 550
-10 725 23 48 9 68 10 68 2 0 -23 -40 -228 -56 -288 -21 -84 -57 -158 -93
-192 -28 -27 -33 -28 -199 -38 -210 -14 -497 0 -536 26 -54 35 -102 156 -135
342 -11 61 -23 122 -26 136 l-6 25 68 -13 c37 -6 123 -17 190 -23z m-232 -298
c9 -32 30 -82 45 -111 l29 -54 -42 7 c-121 20 -256 84 -245 117 7 21 52 48
123 73 39 13 71 25 72 25 1 0 9 -26 18 -57z m1168 1 c67 -35 62 -66 -19 -107
-28 -15 -180 -57 -203 -57 -5 0 3 28 19 61 16 34 34 83 41 109 l12 48 51 -15
c28 -8 72 -26 99 -39z m-1038 -223 c306 -39 818 -14 979 48 77 30 8 -28 -93
-79 -188 -94 -558 -122 -840 -64 -117 24 -251 84 -293 131 -17 18 -13 18 70
-3 48 -12 128 -27 177 -33z m152 -162 c88 -12 442 -7 493 6 18 5 21 4 10 -3
-35 -23 -144 -36 -295 -36 -166 -1 -279 14 -312 41 -16 13 -16 14 -1 9 10 -3
57 -10 105 -17z"/>
</g>
</svg>
