<?xml version="1.0" standalone="no"?>
<!DOCTYPE svg PUBLIC "-//W3C//DTD SVG 20010904//EN"
 "http://www.w3.org/TR/2001/REC-SVG-20010904/DTD/svg10.dtd">
<svg version="1.0" xmlns="http://www.w3.org/2000/svg"
 width="200.000000pt" height="200.000000pt" viewBox="0 0 200.000000 200.000000"
 preserveAspectRatio="xMidYMid meet">
<metadata>
Created by potrace 1.11, written by Peter Selinger 2001-2013
</metadata>
<g transform="translate(0.000000,200.000000) scale(0.100000,-0.100000)"
fill="#000000" stroke="none">
<path d="M1129 1939 c-6 -12 -7 -19 -2 -16 5 4 10 0 10 -8 0 -19 -2 -19 -21 0
-13 13 -15 13 -21 -5 -3 -11 -11 -20 -16 -20 -6 0 -8 4 -4 9 3 5 1 12 -5 16
-6 3 -13 -1 -16 -9 -3 -9 -10 -16 -16 -16 -5 0 -7 4 -4 9 3 5 -1 11 -9 15 -10
3 -15 -1 -16 -12 0 -13 -3 -13 -11 5 -6 12 -19 21 -29 20 -9 -1 -15 -5 -13 -9
8 -13 -11 -9 -25 5 -11 10 -13 10 -7 0 4 -8 1 -13 -8 -13 -9 0 -16 -4 -16 -9
0 -5 -9 -7 -20 -4 -11 3 -17 10 -13 17 3 6 -4 2 -17 -9 -22 -19 -23 -19 -16
-1 5 15 4 17 -8 7 -11 -9 -18 -8 -32 6 -17 17 -17 17 -12 -3 3 -12 2 -28 -3
-35 -6 -10 -8 -9 -8 6 -1 42 -5 54 -15 47 -6 -3 -17 -7 -25 -9 -7 -1 -19 -7
-25 -14 -8 -9 -8 -10 1 -5 25 14 50 14 50 1 0 -8 -8 -12 -20 -9 -11 2 -27 -2
-36 -9 -12 -9 -13 -9 -7 1 4 7 1 12 -8 12 -14 0 -20 -11 -18 -31 1 -3 -17 -3
-38 1 -39 7 -57 -4 -22 -13 9 -3 -1 -5 -23 -5 -22 0 -34 2 -27 5 6 2 12 9 12
15 0 7 -5 6 -14 -2 -8 -6 -12 -18 -9 -26 3 -8 0 -14 -6 -14 -10 0 -15 14 -12
34 1 5 -5 4 -14 -4 -12 -10 -13 -16 -3 -28 11 -13 11 -14 0 -8 -7 4 -20 2 -29
-6 -12 -9 -15 -9 -9 0 4 7 2 12 -4 12 -6 0 -9 4 -5 9 3 5 0 13 -6 17 -7 4 -9
3 -5 -4 3 -6 2 -13 -4 -17 -5 -3 -10 0 -10 7 0 10 -2 10 -9 -1 -6 -9 -11 -10
-15 -2 -9 14 -29 3 -23 -13 3 -7 -5 -13 -19 -14 -13 -1 -24 3 -24 8 0 5 8 7
18 3 9 -3 15 -4 12 -2 -3 2 -15 13 -27 23 -22 18 -22 18 -18 -3 2 -11 -1 -24
-7 -27 -6 -4 -8 -3 -5 2 3 6 2 16 -4 24 -7 13 -9 13 -9 -1 0 -10 -8 -15 -23
-13 -12 1 -25 3 -29 3 -5 1 -7 6 -5 12 1 6 -5 14 -13 16 -12 4 -12 3 -1 -5 9
-7 10 -12 2 -16 -18 -11 -52 -16 -46 -6 3 5 0 12 -6 16 -8 4 -9 3 -5 -4 6 -11
-13 -17 -37 -13 -5 1 -5 -4 -1 -10 5 -9 2 -10 -10 -6 -14 5 -17 3 -13 -8 4 -8
1 -17 -5 -21 -7 -4 -8 -3 -4 4 3 6 -3 16 -14 22 -15 8 -20 8 -18 -2 2 -6 -2
-12 -9 -13 -6 0 -15 -4 -20 -9 -4 -5 -4 -7 2 -4 6 3 21 -9 35 -26 13 -17 18
-25 9 -19 -9 7 -20 9 -24 5 -5 -4 -5 -1 0 7 5 9 4 12 -3 7 -7 -4 -12 -3 -12 2
0 5 -7 9 -16 9 -12 0 -10 -5 7 -18 22 -17 20 -24 -5 -20 -5 1 -4 -4 2 -12 7
-8 8 -18 4 -22 -4 -5 0 -4 8 1 28 16 53 16 46 -2 -7 -19 11 -57 24 -49 5 3 11
1 15 -4 3 -6 -3 -8 -14 -6 -11 2 -26 -4 -33 -13 -11 -13 -11 -15 3 -10 9 3 22
2 30 -4 11 -8 10 -9 -3 -4 -10 3 -18 1 -18 -4 0 -6 5 -10 12 -10 6 0 9 -3 6
-6 -4 -3 -16 0 -28 6 -18 10 -21 9 -15 -1 6 -9 3 -11 -8 -6 -9 3 -19 1 -23 -5
-4 -7 -3 -8 4 -4 7 4 12 3 12 -2 0 -6 9 -8 20 -5 12 3 20 0 20 -6 0 -7 -5 -9
-12 -5 -7 4 -5 -2 5 -13 17 -19 17 -21 0 -34 -16 -12 -17 -12 -6 2 11 13 9 18
-13 28 -15 6 -29 10 -31 7 -2 -2 5 -7 16 -11 23 -7 27 -21 9 -28 -10 -4 -10
-6 0 -6 6 -1 12 -6 12 -12 0 -5 -4 -8 -8 -5 -5 3 -9 -1 -9 -9 0 -13 3 -13 18
1 13 12 19 12 25 3 4 -8 3 -10 -4 -5 -8 5 -11 -2 -8 -23 2 -17 -1 -28 -6 -25
-5 3 -7 12 -4 20 3 8 0 11 -10 7 -11 -4 -12 -8 -2 -20 9 -11 9 -17 -3 -24 -10
-8 -9 -9 8 -4 23 6 40 -9 22 -21 -8 -5 -9 -3 -4 7 5 8 4 10 0 6 -5 -4 -10 -15
-11 -23 -1 -9 0 -13 3 -10 11 11 34 -34 28 -54 -4 -12 -2 -20 5 -20 6 0 8 5 5
10 -3 6 -2 10 4 10 5 0 9 -9 8 -19 0 -11 -5 -17 -9 -15 -4 3 -8 -7 -8 -22 0
-22 3 -25 23 -21 21 6 21 5 3 -8 -10 -8 -22 -12 -26 -10 -4 2 -7 -2 -7 -10 0
-18 13 -20 21 -2 3 6 4 -6 3 -28 -2 -22 -7 -47 -12 -54 -5 -10 -4 -12 3 -7 8
5 12 0 12 -13 0 -11 -4 -23 -10 -26 -5 -3 -10 -11 -10 -17 0 -6 6 -6 15 2 9 7
18 10 22 6 3 -3 1 -6 -5 -6 -7 0 -12 -7 -12 -16 0 -9 -5 -12 -12 -8 -7 4 -8 3
-4 -4 4 -7 1 -12 -6 -12 -8 0 -9 -3 -3 -8 10 -6 11 -20 5 -39 -1 -5 -2 -12 -1
-17 1 -4 -4 -14 -10 -22 -9 -11 -9 -17 0 -28 8 -10 9 -16 1 -19 -6 -3 -6 -5 1
-3 7 1 13 10 15 19 1 10 -2 14 -8 11 -6 -4 -9 -1 -6 6 2 8 11 16 19 18 8 3 11
1 6 -3 -4 -5 1 -17 10 -28 10 -11 13 -17 6 -14 -18 11 -27 -12 -12 -30 11 -13
10 -18 -10 -34 -14 -11 -18 -19 -10 -19 11 0 11 -2 -1 -10 -13 -8 -12 -10 3
-10 9 0 17 -4 17 -10 0 -5 -6 -7 -13 -4 -8 3 -20 -3 -28 -13 -13 -16 -12 -17
2 -5 14 10 18 10 22 -2 3 -8 2 -16 -4 -18 -5 -2 -11 -13 -14 -26 -2 -14 0 -20
6 -16 13 8 7 -28 -6 -39 -6 -5 -1 -6 10 -3 16 5 21 1 22 -14 1 -11 -3 -20 -8
-20 -6 0 -8 4 -5 8 3 5 -2 9 -11 9 -13 0 -12 -4 5 -18 12 -9 22 -22 22 -28 0
-6 6 -11 13 -11 8 0 8 -3 2 -8 -13 -8 -13 -22 -1 -40 7 -12 4 -12 -14 -2 -24
13 -52 -1 -29 -15 8 -5 10 -4 5 3 -4 7 -3 12 2 12 16 0 22 -13 11 -27 -12 -14
0 -18 17 -5 5 4 1 0 -8 -10 -10 -9 -18 -29 -19 -45 0 -25 -1 -26 -10 -8 -8 18
-8 18 -6 -5 1 -16 -3 -24 -11 -22 -8 1 -11 -2 -7 -8 5 -8 11 -7 21 1 17 14 18
5 2 -21 -9 -14 -10 -23 -3 -28 16 -12 41 -47 28 -38 -8 4 -13 2 -13 -8 0 -8
-6 -16 -12 -19 -7 -2 3 -9 22 -14 29 -8 34 -13 31 -34 -3 -24 -3 -24 17 -6 18
17 20 17 18 2 -1 -9 -8 -20 -15 -24 -10 -6 -9 -10 4 -14 9 -4 13 -3 10 3 -3 6
1 10 10 10 9 0 15 -6 14 -13 -1 -6 -1 -19 0 -27 1 -12 4 -12 12 3 5 9 15 17
21 17 6 0 5 -7 -3 -16 -12 -15 -11 -16 6 -11 25 8 48 -22 33 -44 -7 -11 -8 -9
-3 6 5 15 3 17 -6 8 -6 -6 -13 -24 -15 -38 -1 -15 0 -24 3 -21 4 3 13 0 22 -6
12 -10 12 -8 -1 8 -25 29 -22 41 4 18 12 -10 18 -13 13 -5 -5 9 -3 12 6 9 8
-3 13 -14 11 -24 -2 -18 -2 -18 8 -1 6 9 8 22 5 27 -3 6 1 7 9 4 12 -5 13 -11
5 -25 -5 -10 -6 -19 -1 -19 5 0 15 11 22 25 7 14 17 25 22 25 5 0 7 -4 3 -9
-3 -5 -1 -12 5 -16 6 -4 8 -11 4 -16 -3 -5 -10 -7 -15 -3 -5 3 -6 10 -3 16 4
7 2 8 -5 4 -9 -6 -9 -11 0 -22 9 -11 15 -11 25 -3 8 6 12 14 10 18 -3 4 4 13
16 20 11 7 17 8 14 3 -6 -9 13 -22 42 -28 10 -2 10 1 1 12 -6 7 -16 11 -23 7
-6 -3 -8 -2 -4 2 12 12 58 15 58 4 0 -6 -4 -7 -10 -4 -16 10 -11 -1 7 -16 11
-10 14 -10 9 -1 -5 8 0 12 13 12 12 0 21 -4 21 -8 0 -5 6 -9 14 -9 8 0 12 6 9
14 -3 7 -9 11 -13 8 -5 -3 -11 -1 -14 4 -7 10 20 9 30 -2 12 -12 26 -8 18 6
-6 9 -4 9 8 -1 25 -20 57 -23 66 -5 8 13 10 13 15 -2 4 -9 12 -13 18 -10 6 4
9 0 7 -10 -2 -10 4 -20 12 -22 12 -4 12 -3 2 5 -11 7 -8 10 12 14 14 3 24 1
23 -5 -1 -6 6 -13 16 -15 9 -2 17 2 17 8 0 6 -5 8 -12 4 -7 -5 -8 -3 -3 5 5 9
10 10 18 2 7 -7 15 -7 24 1 11 9 13 8 11 -3 -2 -8 7 -15 22 -17 20 -2 22 -1
10 7 -9 7 -10 11 -3 11 6 0 14 -4 18 -10 3 -5 13 -7 23 -4 14 5 14 4 2 -4 -8
-6 -17 -9 -21 -6 -4 2 -10 1 -13 -4 -2 -4 9 -8 25 -7 16 0 29 5 29 11 0 12 36
12 47 -1 5 -4 3 -6 -2 -2 -6 3 -17 1 -25 -4 -11 -7 -8 -8 10 -5 18 2 24 9 22
22 -2 11 -1 16 4 12 4 -4 14 -2 22 5 13 10 14 9 4 -10 -18 -32 -15 -35 11 -10
13 12 22 30 21 40 -2 10 1 15 6 12 5 -3 7 -14 5 -25 -2 -12 0 -18 5 -15 4 3
11 -1 13 -7 4 -10 6 -9 6 1 1 11 4 11 18 0 9 -8 14 -9 10 -3 -4 7 0 17 8 24 8
7 12 17 8 23 -3 6 -1 7 5 3 9 -5 9 -13 1 -27 -6 -12 -8 -23 -5 -27 3 -3 6 0 6
7 0 7 4 10 9 7 5 -3 21 4 37 16 15 13 25 18 22 12 -4 -5 -3 -16 3 -24 7 -13 9
-12 9 2 0 21 16 32 26 17 4 -7 3 -9 -3 -6 -5 3 -10 0 -10 -8 0 -12 4 -12 21 2
12 10 24 23 28 28 5 6 8 6 8 -2 0 -6 -5 -15 -10 -18 -6 -3 -10 -12 -9 -18 0
-9 2 -9 6 1 2 6 9 12 14 12 6 0 7 -6 3 -12 -6 -10 -5 -10 8 -1 8 7 18 10 21 6
4 -3 7 -1 7 6 0 8 -7 11 -15 7 -13 -4 -14 -2 -5 14 11 20 21 27 19 13 -4 -22
3 -24 21 -8 19 17 19 16 14 -11 -3 -20 -2 -25 5 -15 6 9 15 11 27 6 38 -16 44
-15 33 7 -8 15 -8 23 2 32 9 8 10 8 4 -2 -4 -8 1 -21 14 -33 12 -11 21 -15 21
-9 0 6 6 8 13 4 7 -4 9 -3 4 2 -5 5 -14 9 -20 9 -7 0 -13 9 -14 20 -2 16 -1
17 5 4 4 -9 15 -15 25 -13 11 1 16 0 13 -3 -3 -3 1 -18 10 -34 15 -30 28 -40
18 -15 -3 9 4 19 16 26 18 9 21 9 15 0 -5 -8 -3 -11 6 -8 8 3 13 11 11 17 -1
7 3 9 9 6 8 -5 8 -10 0 -18 -6 -6 -11 -15 -11 -21 0 -6 5 -5 12 2 19 19 32 14
17 -5 -12 -16 -12 -17 2 -6 12 10 18 10 28 0 11 -10 11 -8 3 8 -8 17 -7 21 6
21 29 1 46 8 60 24 11 13 12 11 8 -10 -3 -14 -3 -19 0 -12 3 6 11 9 17 5 6 -4
8 0 4 10 -4 11 1 17 15 19 12 2 23 10 26 18 4 12 2 13 -9 2 -7 -6 -18 -12 -23
-12 -6 0 0 7 13 16 18 13 25 14 31 4 6 -9 9 -9 15 -1 5 9 11 9 23 -1 15 -12
16 -11 3 4 -7 10 -17 16 -21 13 -5 -3 -12 0 -16 6 -4 7 -3 9 4 5 6 -3 15 1 20
10 9 15 10 15 16 -4 4 -12 12 -22 17 -22 6 0 7 6 2 13 -13 21 -12 36 3 30 8
-3 11 -9 8 -14 -3 -5 -1 -9 3 -9 8 0 37 38 38 50 0 3 4 10 8 16 4 7 -1 18 -10
25 -14 12 -16 12 -8 0 5 -10 4 -12 -4 -7 -6 4 -9 11 -6 16 3 5 2 11 -3 14 -5
3 -7 19 -4 35 3 20 8 28 16 24 6 -4 5 1 -3 10 -15 18 -26 23 -16 7 3 -5 1 -10
-5 -10 -7 0 -10 6 -7 14 3 7 0 19 -6 26 -10 10 -7 10 10 1 19 -10 22 -9 17 4
-5 13 -17 19 -35 17 -3 -1 -6 6 -6 13 0 11 4 12 13 4 8 -7 14 -6 20 2 4 7 3 9
-3 6 -6 -4 -14 0 -17 9 -3 8 -10 12 -16 9 -5 -3 -10 -1 -10 5 0 7 6 10 14 7 8
-3 16 0 19 7 6 15 -44 17 -56 2 -5 -7 -7 -5 -4 4 2 8 11 15 18 14 8 -1 20 5
27 12 10 11 6 12 -18 9 -17 -2 -30 1 -30 7 0 5 7 8 15 5 8 -4 17 -1 21 5 4 7
3 8 -4 4 -16 -10 -15 7 1 24 6 7 1 6 -13 -3 -13 -10 -29 -17 -35 -17 -5 0 -3
5 5 10 10 7 12 12 4 18 -13 9 -14 42 -1 42 5 0 6 -7 3 -16 -4 -10 -2 -13 6 -8
7 4 8 3 4 -4 -4 -7 -2 -12 3 -12 13 0 14 10 1 30 -5 9 -5 19 1 26 7 8 6 15 -2
20 -7 4 -9 3 -5 -4 3 -6 1 -14 -5 -18 -8 -4 -9 -3 -5 5 4 7 -2 15 -16 21 -20
8 -18 9 13 6 32 -3 36 -1 31 18 -3 11 -7 15 -10 8 -7 -21 -20 -13 -14 10 3 14
1 19 -6 14 -8 -5 -10 -2 -6 8 3 9 10 16 16 16 5 0 7 -4 3 -9 -3 -5 -1 -12 4
-16 6 -3 8 3 6 15 -2 11 0 22 6 25 5 4 9 12 9 18 0 8 -4 7 -9 -2 -5 -8 -17
-16 -25 -17 -9 -1 -14 2 -10 7 3 5 10 6 16 3 6 -4 8 -1 6 7 -3 8 -11 13 -17
11 -7 -1 -10 2 -7 6 3 5 17 8 31 7 21 -3 23 -1 15 15 -5 10 -13 20 -17 22 -5
3 -3 3 4 2 21 -5 25 14 6 26 -16 10 -16 10 2 5 16 -4 21 0 21 15 0 23 -6 25
-26 8 -8 -7 -6 -3 4 9 10 13 24 20 30 16 6 -3 5 0 -1 8 -16 16 -17 33 -1 23 7
-4 8 -3 4 5 -6 9 -11 9 -24 -1 -14 -11 -15 -10 -8 7 17 43 18 68 2 62 -8 -3
-19 0 -25 7 -8 9 -7 13 4 13 8 0 11 -5 8 -10 -3 -6 -1 -7 5 -3 6 4 9 13 6 21
-4 8 -11 12 -17 8 -6 -4 -7 -1 -1 8 4 8 8 24 9 36 0 12 3 25 7 29 4 3 5 -4 3
-16 -2 -13 0 -30 5 -39 6 -11 7 0 5 32 -3 32 0 45 7 41 7 -5 8 -2 2 7 -4 8 -8
23 -9 34 0 12 -6 19 -15 17 -8 -2 -11 0 -7 4 10 11 38 14 32 4 -6 -9 25 -23
33 -15 3 3 -1 5 -8 5 -9 0 -7 7 6 22 15 19 16 20 2 9 -13 -10 -18 -10 -18 -2
0 7 -5 9 -12 5 -7 -4 -8 -3 -4 5 4 6 11 9 16 6 5 -3 11 -1 15 5 3 5 1 10 -5
10 -6 0 -8 5 -5 10 4 6 11 8 16 5 5 -3 6 1 3 9 -3 9 -14 16 -23 16 -14 0 -14
2 -1 10 9 6 20 5 30 -3 13 -10 13 -10 3 4 -7 9 -9 20 -5 25 4 4 -2 2 -12 -6
-11 -8 -17 -10 -13 -3 4 7 0 16 -10 22 -11 6 -13 11 -5 11 7 0 10 5 7 10 -3 6
-1 10 5 10 7 0 10 -7 6 -15 -3 -8 -2 -15 3 -15 5 0 11 11 13 24 3 16 1 23 -8
19 -6 -2 -15 1 -20 8 -4 8 -3 10 4 5 7 -4 12 -2 12 4 0 6 5 8 12 4 7 -4 8 -3
4 5 -4 6 -13 8 -19 5 -8 -5 -8 -3 1 7 18 19 15 29 -10 30 -17 0 -19 2 -8 7 8
4 16 15 18 26 2 13 -1 16 -10 10 -10 -6 -11 -5 -1 7 7 9 11 25 8 37 -3 16 0
19 12 15 12 -5 14 -3 7 8 -12 19 -14 40 -4 34 5 -3 6 7 3 22 -3 16 -6 33 -6
40 0 7 -7 15 -15 18 -11 4 -12 8 -3 19 9 11 6 18 -15 35 -15 12 -25 23 -23 25
2 2 14 -4 27 -14 20 -17 26 -29 36 -77 1 -7 6 -16 11 -20 4 -4 5 -3 2 4 -4 6
-1 14 5 16 10 4 10 6 0 6 -7 1 -10 6 -7 11 3 6 2 10 -2 10 -14 0 -13 43 0 53
7 5 2 6 -12 2 -14 -5 -21 -3 -17 3 3 5 -2 16 -12 23 -15 13 -16 12 -3 -3 16
-22 3 -23 -23 -3 -14 11 -23 12 -33 4 -7 -6 -13 -8 -13 -4 0 4 -6 2 -14 -4
-11 -9 -16 -9 -22 0 -4 8 -3 9 4 5 18 -11 14 10 -5 25 -9 8 -14 9 -11 4 4 -6
-2 -12 -13 -12 -10 -1 -19 3 -19 8 0 6 4 7 10 4 6 -3 7 1 4 10 -6 14 -8 14
-20 -2 -14 -17 -14 -17 -12 1 2 12 -4 20 -15 21 -9 2 -15 -1 -11 -6 3 -5 11
-6 17 -3 7 4 9 3 4 -1 -4 -5 -18 -9 -31 -10 -19 0 -22 2 -14 12 12 14 4 17
-47 13 -27 -2 -28 0 -15 16 14 16 13 16 -7 4 -12 -8 -19 -19 -16 -25 3 -5 0
-5 -7 2 -7 6 -19 9 -26 6 -8 -3 -14 0 -14 5 0 6 9 9 20 7 11 -2 22 0 25 5 3 4
-3 7 -12 5 -10 -1 -25 4 -34 12 -14 12 -17 12 -22 -1 -4 -9 -1 -14 6 -12 7 1
9 1 4 -1 -4 -3 -4 -9 -1 -15 3 -5 -3 -4 -14 3 -15 9 -18 17 -11 25 7 8 6 15
-2 20 -8 4 -9 3 -5 -4 4 -7 3 -12 -3 -12 -5 0 -12 6 -15 13 -3 6 -3 2 0 -10 7
-30 -7 -29 -33 1 -21 23 -78 44 -90 32 -4 -3 -12 -1 -20 5 -9 9 -13 8 -13 0 0
-6 -4 -11 -8 -11 -5 0 -9 7 -9 15 0 8 4 12 9 9 4 -3 8 0 8 6 0 7 -6 10 -14 7
-7 -3 -19 0 -26 6 -10 9 -11 9 -5 -2 6 -10 2 -12 -13 -7 -14 5 -24 1 -31 -11
-14 -25 -14 -7 0 20 12 21 11 21 -8 5 -24 -22 -37 -23 -29 -3 8 22 -2 18 -15
-6z m78 -24 c0 -8 -4 -12 -9 -9 -4 3 -8 9 -8 15 0 5 4 9 8 9 5 0 9 -7 9 -15z
m-231 -4 c-4 -5 -3 -11 1 -14 5 -2 2 -2 -4 -1 -7 2 -13 -2 -13 -8 0 -6 -3 -8
-6 -5 -4 4 -1 13 6 22 14 16 25 21 16 6z m-36 -4 c0 -2 -9 -12 -20 -22 -24
-21 -27 -14 -4 9 15 15 24 20 24 13z m-69 -24 c13 -16 12 -17 -3 -4 -10 7 -18
15 -18 17 0 8 8 3 21 -13z m469 13 c0 -2 -7 -7 -16 -10 -8 -3 -12 -2 -9 4 6
10 25 14 25 6z m40 -22 c0 -2 -7 -4 -15 -4 -8 0 -15 4 -15 10 0 5 7 7 15 4 8
-4 15 -8 15 -10z m-962 -59 c-3 -3 -9 2 -12 12 -6 14 -5 15 5 6 7 -7 10 -15 7
-18z m36 3 c-3 -4 -9 -8 -15 -8 -5 0 -9 4 -9 8 0 5 7 9 15 9 8 0 12 -4 9 -9z
m1149 -3 c-3 -9 -8 -14 -10 -11 -3 3 -2 9 2 15 9 16 15 13 8 -4z m-1393 -9 c0
-2 -7 -7 -16 -10 -8 -3 -12 -2 -9 4 6 10 25 14 25 6z m-114 -15 c-8 -12 19
-33 29 -23 5 4 5 1 1 -6 -6 -11 -12 -10 -27 4 -16 14 -18 34 -3 34 3 0 3 -4 0
-9z m1712 -76 c-3 -3 -9 2 -12 12 -6 14 -5 15 5 6 7 -7 10 -15 7 -18z m-1718
7 c0 -5 -7 -9 -15 -9 -8 0 -12 4 -9 9 3 4 9 8 15 8 5 0 9 -4 9 -8z m1764 -78
c5 -14 4 -15 -9 -4 -17 14 -19 20 -6 20 5 0 12 -7 15 -16z m-1704 -124 c0 -5
-5 -10 -11 -10 -5 0 -7 5 -4 10 3 6 8 10 11 10 2 0 4 -4 4 -10z m15 -260 c-3
-5 -12 -10 -18 -10 -7 0 -6 4 3 10 19 12 23 12 15 0z m1622 -182 c-3 -8 -6 -5
-6 6 -1 11 2 17 5 13 3 -3 4 -12 1 -19z m-1617 -84 c0 -8 -19 -13 -24 -6 -3 5
1 9 9 9 8 0 15 -2 15 -3z m1645 -16 c-3 -12 -12 -29 -22 -37 -16 -15 -16 -15
-4 2 8 9 10 17 5 17 -5 0 -2 5 6 10 13 9 13 10 0 10 -13 0 -13 1 0 10 20 13
19 13 15 -12z m-1660 -18 c3 -5 2 -10 -4 -10 -5 0 -13 5 -16 10 -3 6 -2 10 4
10 5 0 13 -4 16 -10z m1672 -46 c-3 -3 -12 -4 -19 -1 -8 3 -5 6 6 6 11 1 17
-2 13 -5z m-1692 -194 c-3 -5 -1 -10 6 -10 7 0 10 -3 6 -6 -9 -9 -28 6 -22 17
4 5 8 9 11 9 3 0 2 -4 -1 -10z m1726 -493 c-10 -9 -11 -8 -5 6 3 10 9 15 12
12 3 -3 0 -11 -7 -18z m17 -21 c-7 -8 -17 -12 -22 -9 -4 3 -2 9 5 14 22 13 31
11 17 -5z m-1548 -85 c0 -5 -7 -12 -16 -15 -14 -5 -15 -4 -4 9 14 17 20 19 20
6z m1084 -27 c6 -15 4 -15 -11 -3 -10 7 -20 15 -22 16 -2 2 3 3 11 3 9 0 19
-7 22 -16z m-253 -17 c-10 -9 -11 -8 -5 6 3 10 9 15 12 12 3 -3 0 -11 -7 -18z
m363 8 c-4 -8 -8 -15 -10 -15 -2 0 -4 7 -4 15 0 8 4 15 10 15 5 0 7 -7 4 -15z
m-420 -3 c3 -5 -1 -9 -9 -9 -8 0 -15 4 -15 9 0 4 4 8 9 8 6 0 12 -4 15 -8z"/>
<path d="M705 1940 c-3 -6 1 -7 9 -4 18 7 21 14 7 14 -6 0 -13 -4 -16 -10z"/>
<path d="M1081 1924 c0 -11 3 -14 6 -6 3 7 2 16 -1 19 -3 4 -6 -2 -5 -13z"/>
<path d="M1035 1920 c3 -5 8 -10 11 -10 2 0 4 5 4 10 0 6 -5 10 -11 10 -5 0
-7 -4 -4 -10z"/>
<path d="M1295 1920 c-3 -6 1 -7 9 -4 18 7 21 14 7 14 -6 0 -13 -4 -16 -10z"/>
<path d="M644 1902 c3 -6 -2 -13 -11 -15 -16 -4 -16 -5 -1 -6 21 -1 32 15 17
25 -7 4 -9 3 -5 -4z"/>
<path d="M1400 1886 c0 -8 4 -17 9 -20 5 -4 7 3 4 14 -6 23 -13 26 -13 6z"/>
<path d="M271 1844 c0 -11 3 -14 6 -6 3 7 2 16 -1 19 -3 4 -6 -2 -5 -13z"/>
<path d="M1754 1791 c20 -22 26 -25 26 -13 0 4 -10 13 -22 21 -23 14 -23 14
-4 -8z"/>
<path d="M85 1692 c-13 -9 -18 -35 -5 -27 5 3 10 1 10 -6 0 -6 -8 -9 -18 -7
-11 3 -19 0 -19 -7 0 -8 7 -11 15 -7 11 4 13 1 8 -9 -4 -8 -1 -6 7 3 8 10 18
14 22 10 4 -4 2 3 -4 16 -7 12 -9 27 -6 32 7 12 4 13 -10 2z"/>
<path d="M1864 1520 c0 -9 5 -17 11 -17 6 0 11 8 11 17 0 9 -5 17 -11 17 -6 0
-11 -8 -11 -17z"/>
<path d="M1865 1481 c-3 -5 -2 -12 3 -15 5 -3 9 1 9 9 0 17 -3 19 -12 6z"/>
<path d="M91 1345 c0 -5 3 -16 8 -23 7 -11 9 -10 14 3 4 9 3 14 -2 10 -5 -3
-12 1 -14 7 -3 7 -6 9 -6 3z"/>
<path d="M106 858 c3 -4 10 -5 16 -2 8 5 9 1 5 -10 -5 -12 -3 -16 5 -14 22 8
14 33 -9 34 -12 1 -20 -3 -17 -8z"/>
<path d="M1835 819 c-4 -6 -5 -12 -2 -15 2 -3 7 2 10 11 7 17 1 20 -8 4z"/>
<path d="M132 573 c-6 -2 -10 -9 -6 -14 8 -14 21 -11 21 6 0 8 -1 15 -1 14 -1
0 -7 -3 -14 -6z"/>
<path d="M97 338 c7 -8 10 -18 6 -21 -3 -4 -1 -7 5 -7 21 0 21 16 -1 30 -19
12 -21 11 -10 -2z"/>
<path d="M1877 303 c-3 -5 4 -15 16 -23 21 -12 21 -12 7 6 -8 10 -15 20 -16
22 -1 2 -4 -1 -7 -5z"/>
<path d="M150 249 c0 -5 5 -7 10 -4 6 3 10 8 10 11 0 2 -4 4 -10 4 -5 0 -10
-5 -10 -11z"/>
<path d="M270 150 c0 -5 5 -10 11 -10 5 0 7 5 4 10 -3 6 -8 10 -11 10 -2 0 -4
-4 -4 -10z"/>
<path d="M236 141 c-3 -5 1 -14 8 -20 10 -9 16 -9 21 -1 4 6 3 10 -2 9 -20 -3
-27 2 -13 11 9 6 10 10 3 10 -6 0 -14 -4 -17 -9z"/>
<path d="M1343 85 c-3 -9 -3 -18 -1 -21 3 -3 8 4 11 16 6 23 -1 27 -10 5z"/>
<path d="M615 80 c-3 -5 -1 -10 4 -10 6 0 11 5 11 10 0 6 -2 10 -4 10 -3 0 -8
-4 -11 -10z"/>
<path d="M686 81 c-4 -6 -2 -11 4 -11 6 0 8 -6 4 -12 -6 -10 -4 -10 7 0 9 9
10 15 2 23 -8 8 -13 8 -17 0z"/>
<path d="M636 63 c-6 -14 -5 -15 5 -6 7 7 10 15 7 18 -3 3 -9 -2 -12 -12z"/>
<path d="M1661 71 c-10 -6 -9 -10 3 -14 8 -3 18 -2 21 3 8 13 -9 20 -24 11z"/>
<path d="M1535 60 c3 -5 11 -10 16 -10 6 0 7 5 4 10 -3 6 -11 10 -16 10 -6 0
-7 -4 -4 -10z"/>
<path d="M824 49 c-3 -6 -3 -13 0 -16 3 -4 6 -1 6 7 0 10 3 10 15 0 9 -7 17
-11 20 -9 2 3 -4 10 -15 17 -13 8 -21 8 -26 1z"/>
<path d="M1040 56 c0 -2 8 -10 18 -17 15 -13 16 -12 3 4 -13 16 -21 21 -21 13z"/>
</g>
</svg>
