<?xml version="1.0" encoding="UTF-8" standalone="no"?>
<svg
   xmlns:dc="http://purl.org/dc/elements/1.1/"
   xmlns:cc="http://creativecommons.org/ns#"
   xmlns:rdf="http://www.w3.org/1999/02/22-rdf-syntax-ns#"
   xmlns:svg="http://www.w3.org/2000/svg"
   xmlns="http://www.w3.org/2000/svg"
   xml:space="preserve"
   style="enable-background:new 0 0 612 612;"
   viewBox="0 0 612 612"
   height="612px"
   width="612px"
   y="0px"
   x="0px"
   id="Capa_1"
   version="1.1"><metadata
   id="metadata958"><rdf:RDF><cc:Work
       rdf:about=""><dc:format>image/svg+xml</dc:format><dc:type
         rdf:resource="http://purl.org/dc/dcmitype/StillImage" /><dc:title></dc:title></cc:Work></rdf:RDF></metadata><defs
   id="defs956" />
<g
   id="g921">
	<g
   id="vibration">
		<path
   id="path918"
   d="m 18,382.5 h 27 v -153 H 18 Z m 64.5,51 h 33 v -255 h -33 z M 567,229.5 v 153 h 27 v -153 z m -70.5,204 h 33 v -255 h -33 z M 408,466.81699 V 530.5 H 204 V 261.01294 L 153,208.41035 V 543.25 c 0,20.4 17.85,38.25 38.25,38.25 h 229.5 c 20.4,0 38.25,-17.85 38.25,-38.25 v -27.23877 z m 51,-69.99181 V 90.75 C 459,70.35 441.15,52.5 420.75,52.5 h -229.5 c -20.4,0 -38.25,17.85 -38.25,38.25 14.17068,11.79001 35.26321,35.19577 51,50.49878 V 103.5 h 204 v 242.13118 l 25.5,25.597 z" />
	</g>
<path
   id="path1265"
   d="m 110.81405,101.25727 -33.15,33.15 425.85,428.401 33.15,-33.149 c -142.92346,-141.83553 -284.39433,-285.1078 -425.85,-428.402 z" /></g>
<g
   id="g923">
</g>
<g
   id="g925">
</g>
<g
   id="g927">
</g>
<g
   id="g929">
</g>
<g
   id="g931">
</g>
<g
   id="g933">
</g>
<g
   id="g935">
</g>
<g
   id="g937">
</g>
<g
   id="g939">
</g>
<g
   id="g941">
</g>
<g
   id="g943">
</g>
<g
   id="g945">
</g>
<g
   id="g947">
</g>
<g
   id="g949">
</g>
<g
   id="g951">
</g>
</svg>